<?xml version="1.0" encoding="UTF-8" standalone="no"?>
<!-- Created with Inkscape (http://www.inkscape.org/) -->

<svg
   xmlns:osb="http://www.openswatchbook.org/uri/2009/osb"
   xmlns:dc="http://purl.org/dc/elements/1.1/"
   xmlns:cc="http://creativecommons.org/ns#"
   xmlns:rdf="http://www.w3.org/1999/02/22-rdf-syntax-ns#"
   xmlns:svg="http://www.w3.org/2000/svg"
   xmlns="http://www.w3.org/2000/svg"
   xmlns:sodipodi="http://sodipodi.sourceforge.net/DTD/sodipodi-0.dtd"
   xmlns:inkscape="http://www.inkscape.org/namespaces/inkscape"
   width="165.67409mm"
   height="700.21973mm"
   viewBox="0 0 165.67409 700.21973"
   version="1.1"
   id="svg8"
   inkscape:version="0.92.0 r15299"
   sodipodi:docname="laputa.svg">
  <defs
     id="defs2">
    <linearGradient
       id="linearGradient4497"
       osb:paint="solid">
      <stop
         style="stop-color:#000000;stop-opacity:1;"
         offset="0"
         id="stop4495" />
    </linearGradient>
  </defs>
  <sodipodi:namedview
     id="base"
     pagecolor="#ffffff"
     bordercolor="#666666"
     borderopacity="1.0"
     inkscape:pageopacity="0.0"
     inkscape:pageshadow="2"
     inkscape:zoom="1"
     inkscape:cx="403.18084"
     inkscape:cy="259.15722"
     inkscape:document-units="mm"
     inkscape:current-layer="layer1"
     showgrid="false"
     inkscape:object-paths="false"
     inkscape:snap-smooth-nodes="false"
     inkscape:object-nodes="false"
     showguides="false"
     inkscape:window-width="1920"
     inkscape:window-height="1001"
     inkscape:window-x="-9"
     inkscape:window-y="-9"
     inkscape:window-maximized="1"
     fit-margin-top="0"
     fit-margin-left="0"
     fit-margin-right="0"
     fit-margin-bottom="0" />
  <metadata
     id="metadata5">
    <rdf:RDF>
      <cc:Work
         rdf:about="">
        <dc:format>image/svg+xml</dc:format>
        <dc:type
           rdf:resource="http://purl.org/dc/dcmitype/StillImage" />
        <dc:title></dc:title>
      </cc:Work>
    </rdf:RDF>
  </metadata>
  <g
     inkscape:label="Layer 1"
     inkscape:groupmode="layer"
     id="layer1"
     transform="translate(178.37409,515.79999)">
    <path
       id="path4760"
       style="fill:none;stroke:#000000;stroke-width:0.26458332px;stroke-linecap:butt;stroke-linejoin:miter;stroke-opacity:1"
       d="m -132.07514,79.512458 c -3.94412,0.0061 -7.26608,5.407886 -7.74216,12.589412 -0.99629,-1.808264 -2.23311,-2.795315 -3.50832,-2.799829 -3.11197,-8e-5 -5.63475,5.731014 -5.63479,12.800769 0.002,0.14895 0.006,0.2978 0.01,0.44648 -4.98213,7.48218 -8.11193,16.68149 -8.99325,26.43353 -11.77137,2.10247 -18.49746,5.08703 -18.5229,8.21914 0.003,0.64536 0.29109,1.28945 0.86093,1.92495 -0.55257,0.61857 -0.84073,1.24519 -0.86145,1.87327 0.0249,3.28474 7.34882,6.40227 20.03858,8.52971 5.08696,20.67934 20.10968,34.75295 37.10161,34.75757 17.00286,-0.0248 32.022303,-14.13406 37.085072,-34.83767 12.391688,-2.12805 19.511455,-5.20904 19.52594,-8.44961 -0.02397,-0.83849 -0.524565,-1.6738 -1.492414,-2.49029 0.274876,-0.43391 0.41965,-0.87065 0.433565,-1.30793 -0.0051,-2.98554 -6.101205,-5.8451 -16.91473,-7.9344 -0.872664,-10.0208 -4.11841,-19.46458 -9.304859,-27.07328 5.81e-4,-0.0305 0.0011,-0.061 0.0016,-0.0915 5.5e-5,-0.85404 -0.03751,-1.70595 -0.112138,-2.542997 -0.532546,-5.968257 -2.842115,-10.258045 -5.522658,-10.257772 -1.31153,0.002 -2.581667,1.043367 -3.591513,2.944524 -0.005,0.0088 -0.01,0.01755 -0.01497,0.02635 -0.262801,-0.211088 -0.527575,-0.418154 -0.794265,-0.621152 v -5.29e-4 c -0.0395,-0.469392 -0.0918,-0.934884 -0.15658,-1.394748 l -5.3e-4,-0.0067 -10e-4,-0.0062 c -0.0643,-0.454302 -0.14066,-0.902533 -0.22892,-1.34307 l -0.006,-0.03049 c -0.0879,-0.435272 -0.18719,-0.862452 -0.29766,-1.280025 -0.004,-0.01414 -0.007,-0.02826 -0.0109,-0.04238 -0.10838,-0.406279 -0.2272,-0.80291 -0.35605,-1.188558 -0.009,-0.02831 -0.0189,-0.05656 -0.0284,-0.08475 -0.12629,-0.372086 -0.26182,-0.73334 -0.40618,-1.082619 -0.0145,-0.03526 -0.0292,-0.07041 -0.0439,-0.105421 -0.14144,-0.335507 -0.29093,-0.659321 -0.44804,-0.970484 -0.0226,-0.04505 -0.0453,-0.08984 -0.0682,-0.134358 -0.15239,-0.293902 -0.31153,-0.575792 -0.47697,-0.84491 -0.033,-0.05392 -0.0662,-0.107317 -0.0997,-0.160197 -0.15968,-0.251229 -0.32484,-0.490514 -0.49506,-0.717269 -0.0438,-0.05872 -0.0879,-0.1166 -0.13229,-0.173633 -0.16493,-0.209814 -0.33421,-0.407882 -0.50746,-0.593762 -0.0554,-0.05983 -0.11123,-0.1184 -0.16743,-0.1757 -0.16582,-0.167983 -0.33491,-0.324839 -0.50695,-0.470257 -0.0695,-0.05925 -0.13942,-0.116613 -0.20981,-0.172082 -0.16297,-0.12724 -0.32826,-0.244269 -0.49557,-0.350883 -0.0829,-0.05339 -0.16628,-0.104215 -0.25012,-0.152444 -0.15824,-0.08975 -0.318,-0.170229 -0.47904,-0.24133 -0.0981,-0.04398 -0.19664,-0.08447 -0.29559,-0.121438 -0.14926,-0.05472 -0.29935,-0.101422 -0.4501,-0.140044 -0.11217,-0.02964 -0.22468,-0.0548 -0.33745,-0.07545 -0.17045,-0.03167 -0.34142,-0.05304 -0.51263,-0.06408 -0.0788,-0.0074 -0.15774,-0.01253 -0.23667,-0.01551 -2.53261,0.0071 -4.90592,2.267539 -6.36602,6.063197 -1.73161,-0.318759 -3.4781,-0.488126 -5.22759,-0.506947 -2.11308,0.0061 -4.22226,0.231786 -6.30659,0.674894 -0.14699,-0.393853 -0.30463,-0.773977 -0.47232,-1.138949 -0.16731,-0.364451 -0.34444,-0.713357 -0.53072,-1.045414 l -10e-4,-0.0016 c -0.18648,-0.332047 -0.38189,-0.646804 -0.58549,-0.943094 l -10e-4,-0.0016 c -0.20351,-0.29615 -0.41496,-0.57348 -0.63355,-0.830955 l -10e-4,-0.0011 c -0.21872,-0.257515 -0.44431,-0.494833 -0.67593,-0.711068 l -0.001,-0.0011 c -0.23158,-0.21606 -0.4689,-0.410778 -0.71107,-0.583425 l -0.001,-0.0011 c -0.24225,-0.172695 -0.48906,-0.323089 -0.73949,-0.45062 l -10e-4,-5.29e-4 c -0.25039,-0.127356 -0.50409,-0.2317 -0.76016,-0.312642 l -0.002,-5.29e-4 c -0.25597,-0.08092 -0.51399,-0.13835 -0.77308,-0.172083 h -0.001 c -0.18334,-0.02378 -0.36708,-0.03567 -0.55087,-0.03566 z m 17.07389,28.609112 c 5.2101,0.0728 10.194,0.27713 14.55777,0.59686 0.787661,2.95589 2.067865,5.06285 3.549654,5.84202 -6.182584,0.60094 -14.162114,0.93364 -22.433254,0.93534 -8.38943,-0.002 -16.47475,-0.34377 -22.68957,-0.96015 1.45826,-0.79625 2.71663,-2.88038 3.49642,-5.79086 4.06928,-0.30802 8.70628,-0.51475 13.5847,-0.60565 0.97973,4.16261 2.88832,6.76255 4.96611,6.76497 2.08019,-0.004 3.99016,-2.61164 4.96817,-6.78253 z m 23.885882,1.6247 c 3.681039,0.60622 5.647875,1.31761 5.654952,2.04535 -0.009,0.89553 -2.983953,1.76039 -8.374165,2.43448 1.0858,-0.83052 2.034361,-2.39325 2.719213,-4.47983 z m -56.705062,0.0506 c 0.67129,2.02313 1.59174,3.54822 2.6448,4.38217 -5.16526,-0.66737 -8.00551,-1.51308 -8.01812,-2.38746 0.013,-0.70738 1.87757,-1.39956 5.37332,-1.99471 z m -9.07748,17.18965 c -1.17378,0.19687 -2.31697,0.40121 -3.40858,0.6165 -5.18235,1.02206 -9.40619,2.23077 -12.48193,3.6649 -1.53787,0.71706 -2.79735,1.4837 -3.76514,2.41638 -0.9678,0.93269 -1.68763,2.14258 -1.68775,3.51762 v 0.004 0.004 c 0.003,0.68669 0.20563,1.3343 0.51624,1.93167 -0.28829,0.56062 -0.49452,1.15707 -0.51573,1.79989 l -0.001,0.0289 v 0.0295 c -2e-4,1.3823 0.72333,2.5987 1.69809,3.53829 0.97475,0.93959 2.24442,1.7132 3.79563,2.43654 3.10243,1.4467 7.3653,2.6664 12.59562,3.69796 10.46063,2.06312 24.76019,3.31919 40.56083,3.31918 15.80064,1e-5 30.100199,-1.25606 40.560829,-3.31918 5.230315,-1.03156 9.493189,-2.25126 12.595614,-3.69796 1.551212,-0.72334 2.820879,-1.49695 3.795633,-2.43654 0.974757,-0.93959 1.698286,-2.15599 1.698088,-3.53829 v -0.0253 l -5.29e-4,-0.0253 c -0.03098,-1.08368 -0.506307,-2.04284 -1.207162,-2.87321 0.06605,-0.26911 0.138872,-0.53761 0.147794,-0.81804 l 0.0011,-0.0284 v -0.0279 c -1.35e-4,-1.37504 -0.719955,-2.58493 -1.687753,-3.51762 -0.967795,-0.93269 -2.227276,-1.69933 -3.765145,-2.41639 -3.075734,-1.43412 -7.299574,-2.64283 -12.481925,-3.66489 -0.675566,-0.13324 -1.375823,-0.26092 -2.08566,-0.38654 v 3.60546 c 0.474967,0.0863 0.942895,0.17414 1.398881,0.26407 5.014227,0.9889 9.042164,2.17444 11.669054,3.39927 1.313452,0.61243 2.267921,1.24135 2.801381,1.75545 0.510085,0.49158 0.586783,0.7679 0.593244,0.93121 -0.0047,0.0823 -0.02037,0.185 -0.149344,0.38861 l -0.828374,1.30793 1.183392,0.99839 c 0.721913,0.60901 0.843251,0.98704 0.85421,1.16117 -0.0058,0.16973 -0.08486,0.45449 -0.604613,0.9555 -0.540361,0.52087 -1.505625,1.1564 -2.832386,1.77508 -2.653524,1.23737 -6.720046,2.43447 -11.782226,3.43287 -10.124363,1.9968 -24.262573,3.252 -39.874053,3.252 -15.61147,0 -29.74968,-1.2552 -39.87405,-3.252 -5.06218,-0.9984 -9.12871,-2.1955 -11.78223,-3.43287 -1.32676,-0.61868 -2.29202,-1.25421 -2.83239,-1.77508 -0.52046,-0.50169 -0.59902,-0.78691 -0.60461,-0.95654 0.01,-0.12864 0.0639,-0.3381 0.40256,-0.71727 l 1.05833,-1.18442 -1.0604,-1.18287 c -0.36718,-0.40949 -0.40548,-0.62032 -0.40669,-0.74363 7.9e-4,-0.15979 0.0703,-0.44664 0.601,-0.95808 0.53346,-0.5141 1.48793,-1.14302 2.80138,-1.75545 2.62689,-1.22483 6.65482,-2.41037 11.66905,-3.39927 0.87268,-0.17211 1.78828,-0.33634 2.7218,-0.49661 z"
       inkscape:connector-curvature="0"
       sodipodi:nodetypes="cccccccccccccccccccccccccccccccccccccccccccccccccccccccccccccccccccccccccccccccccccccccccccccccscccccccccscsccccccccccscccccccccccccssscccccccscccc" />
    <path
       style="fill:none;stroke:#000000;stroke-width:0.26458332px;stroke-linecap:butt;stroke-linejoin:miter;stroke-opacity:1"
       d="M -12.7,-515.79999 Z"
       id="path4820"
       inkscape:connector-curvature="0" />
  </g>
</svg>
