<svg xmlns="http://www.w3.org/2000/svg">

  <symbol id="earth" viewBox="0 0 285.93 250">
     <title>Earth symbol</title>
     <path d="M276.94,0H9A9,9,0,0,0,1.22,13.46l134,232.06a9,9,0,0,0,15.54,0l134-232.06A9,9,0,0,0,276.94,0ZM107.18,137h89.5l-44.75,77.51ZM210.5,113H93.37L42.29,24.56H261.58Z" />
   </symbol>
   <!-- <?xml version="1.0" encoding="UTF-8" standalone="no"?> -->
   <!-- Created with Inkscape (http://www.inkscape.org/) -->

   <symbol
      xmlns:osb="http://www.openswatchbook.org/uri/2009/osb"
      xmlns:dc="http://purl.org/dc/elements/1.1/"
      xmlns:cc="http://creativecommons.org/ns#"
      xmlns:rdf="http://www.w3.org/1999/02/22-rdf-syntax-ns#"
      xmlns:svg="http://www.w3.org/2000/svg"
      xmlns="http://www.w3.org/2000/svg"
      xmlns:sodipodi="http://sodipodi.sourceforge.net/DTD/sodipodi-0.dtd"
      xmlns:inkscape="http://www.inkscape.org/namespaces/inkscape"
      width="117.56492mm"
      height="105.04077mm"
      viewBox="0 0 117.56492 105.04077"
      version="1.1"
      id="svg8"
      inkscape:version="0.92.0 r15299"
      sodipodi:docname="laputa.svg">
     <defs
        id="defs2">
       <linearGradient
          id="linearGradient4497"
          osb:paint="solid">
         <stop
            style="stop-color:#000000;stop-opacity:1;"
            offset="0"
            id="stop4495" />
       </linearGradient>
     </defs>
     <sodipodi:namedview
        id="base"
        pagecolor="#ffffff"
        bordercolor="#666666"
        borderopacity="1.0"
        inkscape:pageopacity="0.0"
        inkscape:pageshadow="2"
        inkscape:zoom="1"
        inkscape:cx="61.350774"
        inkscape:cy="319.0083"
        inkscape:document-units="mm"
        inkscape:current-layer="layer1"
        showgrid="false"
        inkscape:object-paths="false"
        inkscape:snap-smooth-nodes="false"
        inkscape:object-nodes="false"
        showguides="true"
        inkscape:window-width="1920"
        inkscape:window-height="1001"
        inkscape:window-x="-9"
        inkscape:window-y="-9"
        inkscape:window-maximized="1"
        fit-margin-top="0"
        fit-margin-left="0"
        fit-margin-right="0"
        fit-margin-bottom="0" />
     <metadata
        id="metadata5">
       <rdf:RDF>
         <cc:Work
            rdf:about="">
           <dc:format>image/svg+xml</dc:format>
           <dc:type
              rdf:resource="http://purl.org/dc/dcmitype/StillImage" />
           <dc:title></dc:title>
         </cc:Work>
       </rdf:RDF>
     </metadata>
     <g
        inkscape:label="Layer 1"
        inkscape:groupmode="layer"
        id="layer1"
        transform="translate(131.85238,963.47565)">
       <path
          id="path4760"
          style="fill:none;stroke:#000000;stroke-width:0.26458332px;stroke-linecap:butt;stroke-linejoin:miter;stroke-opacity:1"
          d="m -85.553432,-963.34218 c -3.94412,0.006 -7.26608,5.40789 -7.74216,12.58941 -0.99629,-1.80826 -2.23311,-2.79531 -3.50832,-2.79983 -3.11197,-8e-5 -5.634748,5.73102 -5.634788,12.80077 0.002,0.14895 0.006,0.2978 0.01,0.44648 -4.98213,7.48218 -8.11193,16.68149 -8.99325,26.43353 -11.77137,2.10247 -18.49746,5.08703 -18.5229,8.21914 0.003,0.64536 0.29109,1.28945 0.86093,1.92495 -0.55257,0.61857 -0.84073,1.24519 -0.86145,1.87327 0.0249,3.28474 7.34882,6.40227 20.03858,8.52971 5.08696,20.67935 20.109678,34.75296 37.101608,34.75758 17.00286,-0.0248 32.022307,-14.13406 37.085074,-34.83768 12.391689,-2.12805 19.511455,-5.20904 19.525941,-8.44961 -0.02397,-0.83849 -0.524566,-1.6738 -1.492414,-2.49029 0.274875,-0.43391 0.41965,-0.87065 0.433564,-1.30793 -0.0051,-2.98554 -6.101204,-5.8451 -16.91473,-7.9344 -0.872662,-10.0208 -4.118409,-19.46458 -9.304859,-27.07328 5.29e-4,-0.0305 0.0011,-0.061 0.0016,-0.0915 5.5e-5,-0.85404 -0.03751,-1.70595 -0.112139,-2.54299 -0.532545,-5.96826 -2.842114,-10.25805 -5.522658,-10.25778 -1.311529,0.002 -2.581667,1.04337 -3.591512,2.94453 -0.005,0.009 -0.01,0.0176 -0.01498,0.0263 -0.2628,-0.21109 -0.527574,-0.41816 -0.794267,-0.62115 v -5.3e-4 c -0.0395,-0.46939 -0.0918,-0.93489 -0.15658,-1.39475 l -5.3e-4,-0.007 -0.001,-0.006 c -0.0643,-0.4543 -0.14067,-0.90253 -0.22892,-1.34307 l -0.006,-0.0305 c -0.0879,-0.43527 -0.18719,-0.86245 -0.29766,-1.28003 -0.004,-0.0141 -0.007,-0.0283 -0.0109,-0.0424 -0.10838,-0.40627 -0.2272,-0.80291 -0.35605,-1.18855 -0.009,-0.0283 -0.0189,-0.0566 -0.0284,-0.0848 -0.12629,-0.37209 -0.26182,-0.73334 -0.40618,-1.08262 -0.0145,-0.0353 -0.0292,-0.0704 -0.0439,-0.10542 -0.14144,-0.33551 -0.29093,-0.65932 -0.44804,-0.97049 -0.0226,-0.0451 -0.0453,-0.0898 -0.0682,-0.13436 -0.15239,-0.2939 -0.31153,-0.57579 -0.47697,-0.84491 -0.033,-0.0539 -0.0662,-0.10731 -0.0997,-0.16019 -0.15968,-0.25123 -0.32484,-0.49052 -0.49506,-0.71727 -0.0438,-0.0587 -0.0879,-0.1166 -0.13229,-0.17363 -0.16493,-0.20982 -0.33421,-0.40789 -0.50746,-0.59377 -0.0554,-0.0598 -0.11123,-0.1184 -0.16743,-0.1757 -0.16582,-0.16798 -0.33491,-0.32484 -0.50695,-0.47025 -0.0695,-0.0593 -0.13942,-0.11662 -0.20981,-0.17209 -0.16297,-0.12724 -0.32826,-0.24426 -0.49557,-0.35088 -0.0829,-0.0534 -0.16628,-0.10421 -0.25012,-0.15244 -0.15824,-0.0897 -0.318,-0.17023 -0.47904,-0.24133 -0.0981,-0.044 -0.19664,-0.0845 -0.29559,-0.12144 -0.14926,-0.0547 -0.29935,-0.10142 -0.4501,-0.14004 -0.11217,-0.0296 -0.22468,-0.0548 -0.33745,-0.0755 -0.17045,-0.0317 -0.34142,-0.053 -0.51263,-0.0641 -0.0788,-0.007 -0.15774,-0.0125 -0.23667,-0.0155 -2.53261,0.007 -4.90592,2.26753 -6.36602,6.06319 -1.73161,-0.31876 -3.4781,-0.48812 -5.22759,-0.50694 -2.11308,0.006 -4.22226,0.23178 -6.30659,0.67489 -0.14699,-0.39385 -0.30463,-0.77398 -0.47232,-1.13895 -0.16731,-0.36445 -0.34444,-0.71336 -0.53072,-1.04541 l -10e-4,-0.002 c -0.18648,-0.33205 -0.38189,-0.64681 -0.58549,-0.9431 l -0.001,-0.002 c -0.20351,-0.29615 -0.41496,-0.57348 -0.63355,-0.83095 l -10e-4,-10e-4 c -0.21872,-0.25752 -0.44431,-0.49484 -0.67593,-0.71107 l -10e-4,-10e-4 c -0.23158,-0.21606 -0.4689,-0.41078 -0.71107,-0.58343 l -0.001,-10e-4 c -0.24187,-0.17267 -0.48868,-0.32306 -0.73911,-0.4506 l -10e-4,-5.2e-4 c -0.25033,-0.12736 -0.50403,-0.2317 -0.7601,-0.31265 l -0.002,-5.3e-4 c -0.25596,-0.0809 -0.51398,-0.13835 -0.77307,-0.17208 h -0.001 c -0.18317,-0.0238 -0.36691,-0.0357 -0.5507,-0.0357 z m 17.07389,28.60911 c 5.2101,0.0728 10.194,0.27713 14.55777,0.59686 0.787662,2.95589 2.067867,5.06285 3.549656,5.84202 -6.182586,0.60094 -14.162116,0.93364 -22.433256,0.93534 -8.38943,-0.002 -16.47475,-0.34377 -22.68957,-0.96015 1.45826,-0.79625 2.71663,-2.88038 3.49642,-5.79086 4.06928,-0.30802 8.70628,-0.51475 13.5847,-0.60565 0.97973,4.16261 2.88832,6.76255 4.96611,6.76497 2.08019,-0.004 3.99016,-2.61164 4.96817,-6.78253 z m 23.885883,1.6247 c 3.68104,0.60622 5.647876,1.31761 5.654953,2.04535 -0.009,0.89553 -2.983952,1.76039 -8.374165,2.43448 1.085802,-0.83052 2.034362,-2.39325 2.719212,-4.47983 z m -56.705061,0.0506 c 0.67129,2.02313 1.591738,3.54822 2.644798,4.38217 -5.165258,-0.66737 -8.005508,-1.51308 -8.018118,-2.38746 0.013,-0.70738 1.87757,-1.39956 5.37332,-1.99471 z m -9.07748,17.18965 c -1.17378,0.19687 -2.31697,0.40121 -3.40858,0.6165 -5.18235,1.02206 -9.40619,2.23077 -12.48193,3.6649 -1.53787,0.71706 -2.79735,1.4837 -3.76514,2.41638 -0.9678,0.93269 -1.68763,2.14258 -1.68775,3.51762 v 0.004 0.004 c 0.003,0.68669 0.20563,1.3343 0.51624,1.93167 -0.28829,0.56062 -0.49452,1.15707 -0.51573,1.79989 l -0.001,0.0289 v 0.0295 c -2e-4,1.3823 0.72333,2.5987 1.69809,3.53829 0.97475,0.93959 2.24442,1.7132 3.79563,2.43654 3.10243,1.4467 7.3653,2.6664 12.59562,3.69796 10.46063,2.06312 24.760188,3.31919 40.560828,3.31918 15.80064,10e-6 30.100202,-1.25606 40.560832,-3.31918 5.230315,-1.03156 9.493189,-2.25126 12.595614,-3.69796 1.551212,-0.72334 2.820879,-1.49695 3.795633,-2.43654 0.974757,-0.93959 1.698286,-2.15599 1.698088,-3.53829 v -0.0253 l -5.29e-4,-0.0253 c -0.03098,-1.08368 -0.506307,-2.04284 -1.207162,-2.8732 0.06605,-0.26911 0.138872,-0.53762 0.147794,-0.81805 l 0.0011,-0.0284 v -0.0279 c -1.35e-4,-1.37504 -0.719955,-2.58492 -1.687753,-3.51762 -0.967796,-0.93269 -2.227276,-1.69932 -3.765145,-2.41638 -3.075734,-1.43413 -7.299574,-2.64284 -12.481925,-3.66489 -0.675566,-0.13325 -1.375823,-0.26093 -2.08566,-0.38654 v 3.60545 c 0.474966,0.0863 0.942895,0.17414 1.398881,0.26407 5.014227,0.98891 9.042164,2.17445 11.669053,3.39928 1.313453,0.61242 2.267921,1.24134 2.801382,1.75545 0.510085,0.49158 0.586783,0.7679 0.593244,0.9312 -0.0047,0.0823 -0.02037,0.18501 -0.149344,0.38862 l -0.828374,1.30792 1.183392,0.9984 c 0.721913,0.60901 0.843251,0.98703 0.85421,1.16117 -0.0058,0.16973 -0.08486,0.45449 -0.604613,0.9555 -0.540361,0.52086 -1.505625,1.15639 -2.832386,1.77507 -2.653525,1.23738 -6.720046,2.43448 -11.782226,3.43288 -10.124364,1.9968 -24.262576,3.25199 -39.874056,3.25199 -15.61147,0 -29.749678,-1.25519 -39.874048,-3.25199 -5.06218,-0.9984 -9.12871,-2.1955 -11.78223,-3.43288 -1.32676,-0.61868 -2.29202,-1.25421 -2.83239,-1.77507 -0.52046,-0.50169 -0.59902,-0.78692 -0.60461,-0.95654 0.01,-0.12865 0.0639,-0.33811 0.40256,-0.71727 l 1.05833,-1.18442 -1.0604,-1.18287 c -0.36718,-0.4095 -0.40548,-0.62033 -0.40669,-0.74363 7.9e-4,-0.15979 0.0703,-0.44665 0.601,-0.95808 0.53346,-0.51411 1.48793,-1.14303 2.80138,-1.75545 2.62689,-1.22483 6.65482,-2.41037 11.66905,-3.39928 0.87268,-0.1721 1.78828,-0.33633 2.7218,-0.49661 z"
          inkscape:connector-curvature="0"
          sodipodi:nodetypes="cccccccccccccccccccccccccccccccccccccccccccccccccccccccccccccccccccccccccccccccccccccccccccccccscccccccccscsccccccccccscccccccccccccssscccccccscccc" />
     </g>
   </symbol>


</svg>
